<?xml version="1.0" encoding="UTF-8" standalone="no"?>
<svg
   xmlns:dc="http://purl.org/dc/elements/1.1/"
   xmlns:cc="http://creativecommons.org/ns#"
   xmlns:rdf="http://www.w3.org/1999/02/22-rdf-syntax-ns#"
   xmlns:svg="http://www.w3.org/2000/svg"
   xmlns="http://www.w3.org/2000/svg"
   xmlns:sodipodi="http://sodipodi.sourceforge.net/DTD/sodipodi-0.dtd"
   xmlns:inkscape="http://www.inkscape.org/namespaces/inkscape"
   fill="#000000"
   height="24"
   viewBox="0 0 24 24"
   width="24"
   id="svg4136"
   version="1.1"
   inkscape:version="0.91 r13725"
   sodipodi:docname="notif.svg">
  <metadata
     id="metadata4144">
    <rdf:RDF>
      <cc:Work
         rdf:about="">
        <dc:format>image/svg+xml</dc:format>
        <dc:type
           rdf:resource="http://purl.org/dc/dcmitype/StillImage" />
        <dc:title />
      </cc:Work>
    </rdf:RDF>
  </metadata>
  <defs
     id="defs4142" />
  <sodipodi:namedview
     pagecolor="#ffffff"
     bordercolor="#666666"
     borderopacity="1"
     objecttolerance="10"
     gridtolerance="10"
     guidetolerance="10"
     inkscape:pageopacity="0"
     inkscape:pageshadow="2"
     inkscape:window-width="1366"
     inkscape:window-height="691"
     id="namedview4140"
     showgrid="false"
     inkscape:zoom="18.25"
     inkscape:cx="13.369863"
     inkscape:cy="12"
     inkscape:window-x="-9"
     inkscape:window-y="-9"
     inkscape:window-maximized="1"
     inkscape:current-layer="svg4136" />
  <path
     style="opacity:1;fill:#000000;fill-opacity:1;stroke:none;stroke-width:8;stroke-linecap:round;stroke-linejoin:bevel;stroke-miterlimit:4;stroke-dasharray:none;stroke-dashoffset:0;stroke-opacity:1"
     d="M 12 3 A 9 9 0 0 0 3 12 A 9 9 0 0 0 12 21 A 9 9 0 0 0 21 12 A 9 9 0 0 0 12 3 z M 12 7.1875 C 12.416383 7.1875 12.751953 7.5180269 12.751953 7.9277344 L 12.751953 8.2636719 C 14.186718 8.5993359 15.009766 9.8673876 15.009766 11.382812 L 15.009766 13.851562 L 16.013672 14.837891 L 16.013672 15.332031 L 7.9863281 15.332031 L 7.9863281 14.837891 L 8.9902344 13.851562 L 8.9902344 11.382812 C 8.9902344 9.8624515 9.8082637 8.5993359 11.248047 8.2636719 L 11.248047 7.9277344 C 11.248047 7.5180269 11.583617 7.1875 12 7.1875 z M 10.996094 15.826172 L 13.003906 15.826172 C 13.003906 16.369158 12.551833 16.8125 12 16.8125 C 11.44315 16.8125 10.996094 16.369158 10.996094 15.826172 z "
     id="path4146" />
</svg>
